# xmcd CD database file
#
# Track frame offsets:
#	150
#	17642
#	45320
#	65250
#	94832
#	125515
#	154852
#	182867
#	211350
#	248580
#
# Disc length: 3691 seconds
#
# Revision: 0
# Processed by: cddbd v1.5.1PL0 Copyright (c) Steve Scherf et al.
# Submitted via: CDex 1.51
#
DISCID=7e0e690a
DTITLE=Eijiro Nakagawa - Babe
DYEAR=1995
DGENRE=Jazz
TTITLE0=01-OLEO
TTITLE1=02-EPISTROPHY
TTITLE2=03-AIN'T MISBEHAVIN'
TTITLE3=04-BABE
TTITLE4=05-SOMEDAY MY PRINCE WILL COME
TTITLE5=06-KOHINOOR
TTITLE6=07-PANS AND NEEDLES
TTITLE7=08-BYE BYE BLACKBIRD
TTITLE8=09-'ROUND MIDNIGHT
TTITLE9=10-MOMENT'S NOTICE
EXTD=YEAR: 1995
EXTT0=
EXTT1=
EXTT2=
EXTT3=
EXTT4=
EXTT5=
EXTT6=
EXTT7=
EXTT8=
EXTT9=
PLAYORDER=
